<svg width="19" height="14" viewBox="0 0 19 14" fill="none" xmlns="http://www.w3.org/2000/svg">
<path d="M18.348 11.4562C18.07 12.9482 16.604 13.7992 15.086 13.7992H3.914C2.396 13.7992 0.93 12.9492 0.652 11.4562C0.410165 10.1571 0.457372 8.82062 0.790268 7.5418C1.12316 6.26298 1.73358 5.07316 2.57816 4.05686C3.42274 3.04055 4.48075 2.22269 5.67705 1.66138C6.87334 1.10007 8.17856 0.809082 9.5 0.809082C10.8214 0.809082 12.1267 1.10007 13.323 1.66138C14.5192 2.22269 15.5773 3.04055 16.4218 4.05686C17.2664 5.07316 17.8768 6.26298 18.2097 7.5418C18.5426 8.82062 18.5898 10.1571 18.348 11.4562ZM4.118 6.79817C3.97909 6.79859 3.84437 6.8458 3.73558 6.93218C3.6268 7.01856 3.55028 7.13908 3.51839 7.27428C3.4865 7.40948 3.50108 7.55148 3.55979 7.67737C3.61851 7.80327 3.71792 7.90571 3.842 7.96817C5.447 8.77117 6.981 9.65217 8.5 10.5292C8.76755 10.6834 9.06719 10.7736 9.37544 10.7927C9.68369 10.8118 9.99217 10.7592 10.2767 10.6391C10.5612 10.5191 10.8141 10.3347 11.0155 10.1005C11.2168 9.86636 11.3612 9.58875 11.4373 9.28943C11.5134 8.99012 11.5192 8.67725 11.4541 8.37534C11.3891 8.07342 11.255 7.79068 11.0624 7.54926C10.8698 7.30783 10.6239 7.1143 10.344 6.98381C10.0641 6.85333 9.75774 6.78945 9.449 6.79717L4.118 6.79817Z" fill="#3B9B5B"/>
</svg>
