<svg width="17" height="17" viewBox="0 0 17 17" fill="none" xmlns="http://www.w3.org/2000/svg">
<path d="M8.5 16.7993C10.6217 16.7993 12.6566 15.9565 14.1569 14.4562C15.6571 12.9559 16.5 10.921 16.5 8.79932C16.5 6.67758 15.6571 4.64275 14.1569 3.14246C12.6566 1.64217 10.6217 0.799316 8.5 0.799316C6.37827 0.799316 4.34344 1.64217 2.84315 3.14246C1.34285 4.64275 0.5 6.67758 0.5 8.79932C0.5 10.921 1.34285 12.9559 2.84315 14.4562C4.34344 15.9565 6.37827 16.7993 8.5 16.7993ZM10.79 12.5093L7.5 9.20932V4.79932H9.5V8.38932L12.21 11.0993L10.79 12.5093Z" fill="#6C8694"/>
</svg>
