<svg width="25" height="25" viewBox="0 0 25 25" fill="none" xmlns="http://www.w3.org/2000/svg">
<path d="M22 11.1993C20.5 9.09932 17.3 5.79932 12.5 5.79932C7.69998 5.79932 4.49998 9.09932 2.99998 11.1993C2.29998 12.1993 2.29998 13.4993 2.99998 14.3993C4.49998 16.4993 7.69998 19.7993 12.5 19.7993C17.3 19.7993 20.5 16.4993 22 14.3993C22.7 13.3993 22.7 12.0993 22 11.1993ZM12.5 17.7993C9.69998 17.7993 7.49998 15.5993 7.49998 12.7993C7.49998 9.99932 9.69998 7.79932 12.5 7.79932C15.3 7.79932 17.5 9.99932 17.5 12.7993C17.5 15.5993 15.3 17.7993 12.5 17.7993Z" fill="#6C8694"/>
<path d="M14.2 10.2993C13.7 9.99932 13.1 9.79932 12.5 9.79932C10.8 9.79932 9.5 11.0993 9.5 12.7993C9.5 14.4993 10.8 15.7993 12.5 15.7993C14.2 15.7993 15.5 14.4993 15.5 12.7993H12.5L14.2 10.2993Z" fill="#6C8694"/>
</svg>
